<?xml version="1.0" encoding="iso-8859-1"?>
<!-- Generator: Adobe Illustrator 22.0.0, SVG Export Plug-In . SVG Version: 6.00 Build 0)  -->
<svg version="1.1" id="Layer_1" xmlns="http://www.w3.org/2000/svg" xmlns:xlink="http://www.w3.org/1999/xlink" x="0px" y="0px"
	 viewBox="0 0 100.25 100.25" style="enable-background:new 0 0 100.25 100.25;" xml:space="preserve">
<path d="M87.343,66.829l-9.194-9.207l3.335-3.418c0.574-0.588,0.567-1.529-0.015-2.109l-30.49-30.403
	c-0.584-0.583-1.531-0.583-2.116-0.002l-4.385,4.356l-3.03-3.04c-0.562-0.565-1.562-0.565-2.125,0l-3.607,3.62l-3.843-3.848
	l4.34-4.347c0.584-0.586,0.584-1.534,0-2.12L25.416,5.499c-0.562-0.562-1.56-0.563-2.123,0l-4.382,4.389
	c-0.058-0.091-0.099-0.19-0.179-0.269l-6.17-6.179c-0.586-0.586-1.536-0.588-2.122-0.001c-0.586,0.585-0.587,1.535-0.001,2.122
	l6.17,6.179c0.08,0.081,0.18,0.123,0.273,0.181l-4.386,4.392c-0.584,0.586-0.584,1.534,0,2.12l10.797,10.813
	c0.281,0.282,0.664,0.44,1.062,0.44s0.78-0.158,1.062-0.44l4.337-4.343l3.845,3.851l-3.622,3.635c-0.583,0.585-0.583,1.532,0,2.117
	l2.979,2.99l-2.961,2.941c-0.283,0.281-0.442,0.664-0.443,1.062s0.158,0.782,0.441,1.063l18.058,18.006L46.284,86.5
	c-0.032,0.471,0.159,0.92,0.5,1.222c0.043,0.058,0.065,0.125,0.118,0.177l8.227,8.238c0.293,0.293,0.677,0.44,1.062,0.44
	c0.383,0,0.767-0.146,1.06-0.438c0.586-0.585,0.587-1.535,0.001-2.122l-7.39-7.4l16.536-16.949l9.053,9.066
	c0.281,0.282,0.664,0.44,1.062,0.44s0.78-0.158,1.062-0.44l9.769-9.783C87.927,68.363,87.927,67.415,87.343,66.829z M24.356,26.06
	l-8.678-8.69l8.678-8.689l8.677,8.689L24.356,26.06z M33.157,33.444l7.229-7.255l1.964,1.971l-7.266,7.219L33.157,33.444z
	 M33.179,41.5l2.406-2.391c0.265-0.061,0.521-0.167,0.727-0.373c0.206-0.205,0.313-0.459,0.375-0.722l8.363-8.308
	c0.221-0.07,0.433-0.175,0.609-0.35c0.175-0.174,0.281-0.384,0.352-0.604l3.907-3.882L78.3,53.171L49.554,82.634l1.536-22.545
	c0.029-0.433-0.13-0.858-0.438-1.164L33.179,41.5z M76.513,75.549l-8.019-8.031l7.56-7.749l8.108,8.119L76.513,75.549z"/>
</svg>
