<svg id="Слой_1" data-name="Слой 1" xmlns="http://www.w3.org/2000/svg" viewBox="0 0 100 100"><title>testМонтажная область 22</title><path d="M86.38,50.68s0-.09.05-.13a1.46,1.46,0,0,0,0-.15s0-.09,0-.13,0-.1,0-.15,0-.09,0-.14,0-.09,0-.14a1.47,1.47,0,0,0,0-.14s0-.09-.05-.14l-.06-.13-.09-.14-.06-.09a70.06,70.06,0,0,0-10.47-10.3C67.22,32.09,58.51,28.5,50.5,28.5c-21.29,0-36.09,19.88-36.71,20.72l0,.07-.08.13-.06.13,0,.13a1.46,1.46,0,0,0,0,.15s0,.09,0,.14,0,.1,0,.15,0,.1,0,.14,0,.09,0,.14a1.47,1.47,0,0,0,0,.14l0,.14.06.13.08.14,0,.06c.62.84,15.42,20.5,36.71,20.5,8,0,16.72-3.55,25.21-10.27A69.58,69.58,0,0,0,86.18,51l.06-.1.09-.13ZM50.5,68.5C33.22,68.5,20,53.89,16.91,50.1,20,46.28,33.19,31.5,50.5,31.5,66,31.5,79.7,46.22,83,50.11,79.7,54,66,68.5,50.5,68.5Z"/><path d="M50,34.5A15.5,15.5,0,1,0,65.5,50,15.52,15.52,0,0,0,50,34.5Zm0,28A12.5,12.5,0,1,1,62.5,50,12.52,12.52,0,0,1,50,62.5Z"/><path d="M16,31.5A1.5,1.5,0,0,0,17.5,30V17.5H30a1.5,1.5,0,0,0,0-3H16A1.5,1.5,0,0,0,14.5,16V30A1.5,1.5,0,0,0,16,31.5Z"/><path d="M70,17.5H82.5V30a1.5,1.5,0,0,0,3,0V16A1.5,1.5,0,0,0,84,14.5H70a1.5,1.5,0,0,0,0,3Z"/><path d="M84,68.5A1.5,1.5,0,0,0,82.5,70V82.5H70a1.5,1.5,0,0,0,0,3H84A1.5,1.5,0,0,0,85.5,84V70A1.5,1.5,0,0,0,84,68.5Z"/><path d="M30,82.5H17.5V70a1.5,1.5,0,0,0-3,0V84A1.5,1.5,0,0,0,16,85.5H30a1.5,1.5,0,0,0,0-3Z"/><path d="M50,42.5A7.5,7.5,0,1,0,57.5,50,7.51,7.51,0,0,0,50,42.5Zm0,12A4.5,4.5,0,1,1,54.5,50,4.5,4.5,0,0,1,50,54.5Z"/></svg>